/* XPM */
static char * hide_pressed_xpm[] = {
"13 13 4 1",
" 	c None",
".	c #FFFFFF",
"+	c #000000",
"@	c #0C0C0C",
".............",
".+++++++++++.",
".+....@....+.",
".+.@..@..@.+.",
".+..@.@.@..+.",
".+.........+.",
".+@@@...@@@+.",
".+.........+.",
".+..@.@.@..+.",
".+.@..@..@.+.",
".+....@....+.",
".+++++++++++.",
"............."};
