/* XPM */
static char * stick_active_xpm[] = {
"13 13 4 1",
" 	c None",
".	c #FFFFFF",
"+	c #000000",
"@	c #FEFEFE",
".............",
".+++++++++++.",
".+.........+.",
".+......+..+.",
".+@@@@@+++@+.",
".+......+..+.",
".+.........+.",
".+.........+.",
".+.........+.",
".+.........+.",
".+.........+.",
".+++++++++++.",
"............."};
