/* XPM */
static char * title_3_active_xpm[] = {
"2 19 3 1",
" 	c None",
".	c #000000",
"+	c #FFFFFF",
"..",
"++",
"++",
"++",
"++",
"++",
"++",
"++",
"++",
"++",
"++",
"++",
"++",
"++",
"++",
"++",
"++",
"++",
".."};
