/* XPM */
static char * title_1_active_xpm[] = {
"5 19 3 1",
" 	c None",
".	c #000000",
"+	c #FFFFFF",
".....",
"+++++",
"+++++",
"+++++",
".....",
"+++++",
".....",
"+++++",
".....",
"+++++",
".....",
"+++++",
".....",
"+++++",
".....",
"+++++",
"+++++",
"+++++",
"....."};
